#N canvas 558 125 601 414 12;
#X obj 174 224 wavelist, f 9;
#X msg 165 87 scan /sdcard/recordings/;
#X floatatom 239 169 5 0 0 0 - - - 0;
#X floatatom 173 310 5 0 0 0 - - - 0;
#X floatatom 257 315 5 0 0 0 - - - 0;
#X obj 174 267 route total_files next_name filename;
#X symbolatom 341 341 20 0 0 0 - - - 0;
#X obj 340 315 symbol;
#X msg 216 122 add ddddd.wav;
#X msg 63 42 scan /Users/owen1/repos/wavelist/testfiles;
#X connect 0 0 5 0;
#X connect 1 0 0 0;
#X connect 2 0 0 0;
#X connect 5 0 3 0;
#X connect 5 1 4 0;
#X connect 5 2 7 0;
#X connect 7 0 6 0;
#X connect 8 0 0 0;
#X connect 9 0 0 0;
