#N canvas 558 125 601 414 12;
#X obj 174 224 wavelist, f 9;
#X obj 165 280 print;
#X msg 153 105 scan /sdcard/recordings/;
#X msg 218 171 2;
#X msg 63 42 scan /Users/owen1/repos/randomstuff/filelist/testfiles-names
;
#X msg 104 71 scan /Users/owen1/repos/randomstuff/filelist/testfiles
;
#X floatatom 275 165 5 0 0 0 - - - 0;
#X connect 0 0 1 0;
#X connect 2 0 0 0;
#X connect 3 0 0 0;
#X connect 4 0 0 0;
#X connect 5 0 0 0;
#X connect 6 0 0 0;
